# xmcd CD database file
#
# Track frame offsets:
#	150
#	12128
#	21690
#	33203
#	45867
#	55119
#	69032
#	80373
#	93404
#	107847
#	119882
#	131403
#	137536
#	147432
#	158806
#	171323
#
# Disc length: 2416 seconds
#
# Revision: 0
# Processed by: cddbd v1.5.2PL0 Copyright (c) Steve Scherf et al.
# Submitted via: cdripper 1,0,39,0213
#
DISCID=d1096e10
DTITLE=Rawhide - Country Legands
DYEAR=1900
DGENRE=Country
TTITLE0=01 Conway Twitty - Linda On My Mind
TTITLE1=02 Dave Dudley - Six Days On The Road
TTITLE2=03 Patsy Cline - Walkin' After Midnight
TTITLE3=04 Rex Allen Junior - Country Comfort
TTITLE4=05 Frankie Lane - Rawhide
TTITLE5=06 Patti Page - The Tennessee Waltz
TTITLE6=07 Johnny Cash - Oh Lonesome Me
TTITLE7=08 Faron Young - Apartment No. 9
TTITLE8=10 Freddy Fender - Wild Side of Life
TTITLE9=09 Skeeter Davis - I Can't Help You I'm Falling Too
TTITLE10=11 Lynn Anderson - Listen To A Country Song
TTITLE11=12 Loretta Lynn - I Fall To Pieces
TTITLE12=13 Willie Nelson - Let's Pretend
TTITLE13=14 Jeannie C. Riley - Box Of Memories
TTITLE14=15 Charlie Rich - Behind Closed Doors
TTITLE15=16 Billie Jo Spears - My Arms Stay Open Late
EXTD=
EXTT0=
EXTT1=
EXTT2=
EXTT3=
EXTT4=
EXTT5=
EXTT6=
EXTT7=
EXTT8=
EXTT9=
EXTT10=
EXTT11=
EXTT12=
EXTT13=
EXTT14=
EXTT15=
PLAYORDER=
